<svg version="1.2" xmlns="http://www.w3.org/2000/svg" viewBox="0 0 1200 1200" width="1200" height="1200"><style>.a{fill:#7ba1ff}</style><path fill-rule="evenodd" class="a" d="m1170.9 219.4v304.5h-83.7v152.2h-59v85.7h-85.6v76.1h-67.6v66.6h-84.7v76.1h-84.7v76.2h-67.5v76.1h-76.2v-76.1h-76.1v-76.2h-76.1v-76.1h-76.1v-66.6h-85.7v-77.1h-76.1v-84.7h-66.6v-152.2h-76.1v-304.5h76.1v-84.7h66.6v-67.6h314v67.6h76.1v84.7h76.2v-84.7h67.5v-67.6h322.6v67.6h58v84.7zm-761.2-84.7h-152.3v84.7h-85.6v295.9h85.6v-295.9h152.3z"/></svg>